<?xml version="1.0" standalone="no"?>
<!DOCTYPE svg PUBLIC "-//W3C//DTD SVG 20010904//EN"
 "http://www.w3.org/TR/2001/REC-SVG-20010904/DTD/svg10.dtd">
<svg version="1.0" xmlns="http://www.w3.org/2000/svg"
 width="700.000000pt" height="700.000000pt" viewBox="0 0 700.000000 700.000000"
 preserveAspectRatio="xMidYMid meet">
<metadata>
Created by potrace 1.14, written by Peter Selinger 2001-2017
</metadata>
<g transform="translate(0.000000,700.000000) scale(0.100000,-0.100000)"
fill="#000000" stroke="none">
<path d="M2606 6969 c29 -32 95 -95 150 -145 16 -15 83 -79 149 -143 130 -125
486 -466 575 -550 30 -29 90 -86 133 -128 l78 -75 31 28 c17 16 49 46 72 68
22 21 86 82 142 135 55 53 188 180 295 282 107 103 226 217 264 254 39 37 123
117 187 178 65 62 118 115 118 120 0 4 -500 7 -1112 7 l-1112 0 30 -31z"/>
<path d="M1715 5010 c0 -401 -2 -730 -4 -730 -3 0 -32 28 -65 62 -251 257
-702 328 -1052 167 -305 -141 -498 -405 -579 -794 -14 -65 -13 -331 1 -420 38
-242 152 -473 308 -619 192 -181 433 -268 721 -261 124 4 142 6 235 30 185 49
321 139 419 279 l41 59 0 -159 0 -159 233 1 c127 1 238 2 245 3 9 1 12 335 12
1636 l0 1635 -258 0 -257 0 0 -730z m-487 -894 c157 -23 318 -124 401 -251 73
-114 101 -221 97 -380 -2 -100 -7 -133 -29 -198 -89 -258 -318 -412 -599 -401
-307 11 -539 225 -574 530 -27 240 54 455 221 581 32 24 71 51 85 58 41 21
148 55 193 62 23 3 43 6 44 7 5 4 112 -1 161 -8z"/>
<path d="M3428 5583 c-2 -5 -3 -234 -3 -510 l1 -503 -55 -15 c-367 -105 -641
-353 -754 -685 -44 -128 -56 -219 -52 -390 4 -170 6 -187 41 -306 30 -106 60
-170 125 -269 134 -206 383 -384 630 -449 l65 -18 0 -511 0 -512 254 0 255 0
1 500 c1 275 2 505 3 511 0 7 18 15 39 19 58 11 190 59 262 95 163 82 317 221
398 360 14 25 30 47 34 48 4 2 8 11 8 19 0 9 8 30 19 47 32 53 72 184 96 311
10 52 13 271 5 316 -5 24 -11 64 -15 88 -18 124 -97 310 -181 427 -141 199
-342 331 -619 406 l-50 14 -1 494 c-1 272 -2 501 -3 508 -1 9 -58 12 -250 12
-138 0 -251 -3 -253 -7z m372 -1468 c55 -8 174 -55 227 -88 101 -64 186 -176
227 -299 29 -88 36 -129 37 -222 2 -245 -121 -457 -323 -555 -328 -160 -714
-23 -841 299 -36 93 -46 160 -43 285 4 124 30 216 88 312 34 57 111 139 163
174 123 83 302 119 465 94z"/>
<path d="M3585 3747 c-91 -43 -146 -131 -151 -241 -3 -58 0 -77 22 -120 47
-94 133 -146 238 -146 92 1 172 55 218 149 28 58 32 189 6 236 -66 121 -219
177 -333 122z"/>
<path d="M6105 4589 c-46 -6 -67 -10 -134 -24 -56 -11 -162 -51 -246 -92 -326
-161 -542 -450 -589 -786 -14 -107 -13 -294 4 -388 47 -265 186 -494 395 -649
33 -25 62 -47 65 -50 3 -4 46 -27 95 -52 187 -95 337 -132 545 -132 194 -1
338 32 505 115 79 39 245 153 245 168 0 9 -4 14 -150 171 -53 58 -117 127
-141 153 l-45 48 -54 -50 c-168 -156 -379 -184 -605 -81 -161 74 -281 216
-336 400 -9 28 -14 90 -13 166 1 141 22 225 83 325 193 318 594 388 853 150
l63 -59 173 173 c94 95 172 178 172 185 0 30 -158 149 -275 209 -77 38 -206
81 -290 96 -57 10 -261 13 -320 4z"/>
<path d="M3669 1053 c-8 -10 -98 -97 -199 -193 -100 -96 -206 -197 -235 -225
-103 -99 -441 -423 -485 -464 -117 -110 -146 -139 -159 -154 -13 -16 62 -17
1105 -17 l1119 0 -65 62 c-36 33 -153 145 -260 248 -107 103 -218 209 -247
236 -28 27 -136 131 -240 230 -237 229 -307 294 -313 294 -3 0 -12 -8 -21 -17z"/>
</g>
</svg>
